<svg id="logo" data-name="data" xmlns="http://www.w3.org/2000/svg" viewBox="0 0 1238.71 259.61"><defs><style>.cls-1{fill:#ff1616;}</style></defs><path class="cls-1" d="M953.93,749.16a4.7,4.7,0,0,0-7.57,3.73V783a4.71,4.71,0,0,0,7.75,3.6l18.63-15.77a4.71,4.71,0,0,0-.17-7.33Z" transform="translate(-89.29 -578.39)"/><polygon class="cls-1" points="203.88 211.65 91.13 257.04 90.86 258.89 277.64 258.89 286.29 197.95 268.62 211.65 203.88 211.65"/><polygon class="cls-1" points="95.91 50.48 232.93 50.48 228.6 81.85 303.96 81.85 312.61 18.75 210.57 18.75 213.46 0 122.23 0 133.77 12.26 132.69 18.75 24.88 18.75 16.23 81.85 91.58 81.85 95.91 50.48"/><polygon class="cls-1" points="321.63 259.25 394.46 259.25 407.7 237.51 334.87 237.51 321.63 259.25"/><polygon class="cls-1" points="1147.85 219.22 1162.99 111.41 1199.94 104.97 1199.94 68.42 1168.4 73.92 1178.86 0 1096.65 0 1108.18 13.7 1074.34 253.84 1218.21 253.84 1225.37 205.52 1209.5 219.22 1147.85 219.22"/><polygon class="cls-1" points="1214.23 65.92 1214.23 102.48 1233.3 99.16 1238.71 61.66 1214.23 65.92"/><path class="cls-1" d="M1108.78,688h61.65l4.69-34.25h-61.66l10.82-75.36h-82.21l11.54,13.34-28.3,201.32-116.09,2,7.57-53.36h80.77l13.34-95.92H966.19l15.5-21.63,4.69-34.25H840l9.37-11.54H780.14l6.49,7.57L741.2,639.32H800l13.7-16.94h90.14l-17.67,23.43H744.8l-13.34,95.92h69.59L727.76,815.9H684.64c.11-.56.23-1.12.31-1.7l12.62-88.34H551.9l10.81-17.31H694.32l17.31-123.31H423.9l11.89,13.7-15.5,109.61h69.59l-10.82,17.31H418.13l0,.09-136.25,2.66,3.22-22.94,87.25-6.49,5.05-36.06L116,681.15l-5,36.78,86.9-6.13-2.88,20.55L94.7,739.56l-5.41,36.78,100.6-6.85L182.63,820l91.47-36.82,2.68-19.86,140.76-3.21v0h40.61l-24.74,40.6h72.84L531,760.11h93l-6.13,44.35L585.79,838h71.39a30.46,30.46,0,0,0,4.63-.36H774l5.4-5.41,78.25-79-7.57,54.81-3.25,24.16h303.48l5.69-41.47-62,1.09ZM604.9,612.64h34.62l-2.89,20.55H602Zm-6.49,48h34.25l-2.88,20.55H595.53ZM527,681.15H492.76l2.89-20.55H529.9Zm6.49-48H499.62l2.88-20.55h33.89Zm296.75,77.17H795.64l4.69-33.54h34.61Zm73.91-33.54h42.19l-4.69,33.54H899.48Z" transform="translate(-89.29 -578.39)"/></svg>